<svg width="24" height="24" viewBox="0 0 24 24" fill="none" xmlns="http://www.w3.org/2000/svg">
<path d="M9.55 12.0001L16.9 19.3501C17.15 19.6001 17.2708 19.8918 17.2625 20.2251C17.2542 20.5584 17.125 20.8501 16.875 21.1001C16.625 21.3501 16.3333 21.4751 16 21.4751C15.6667 21.4751 15.375 21.3501 15.125 21.1001L7.425 13.4251C7.225 13.2251 7.075 13.0001 6.975 12.7501C6.875 12.5001 6.825 12.2501 6.825 12.0001C6.825 11.7501 6.875 11.5001 6.975 11.2501C7.075 11.0001 7.225 10.7751 7.425 10.5751L15.125 2.87511C15.375 2.62511 15.6708 2.50428 16.0125 2.51261C16.3542 2.52094 16.65 2.65011 16.9 2.90011C17.15 3.15011 17.275 3.44178 17.275 3.77511C17.275 4.10844 17.15 4.40011 16.9 4.65011L9.55 12.0001Z" fill="#484647"/>
</svg>
