<svg width="21" height="24" viewBox="0 0 21 24" fill="none" xmlns="http://www.w3.org/2000/svg">
<path d="M4.43918 23.3333C3.797 23.3333 3.24729 23.0973 2.79004 22.6253C2.33279 22.1533 2.10417 21.5859 2.10417 20.923V4.00001H1.78125C1.50677 4.00001 1.27675 3.90412 1.09118 3.71235C0.905393 3.52057 0.8125 3.28301 0.8125 2.99968C0.8125 2.71612 0.905393 2.47868 1.09118 2.28735C1.27675 2.09579 1.50677 2.00001 1.78125 2.00001H6.625C6.625 1.67357 6.73641 1.39535 6.95922 1.16535C7.18182 0.935568 7.45124 0.820679 7.76748 0.820679H13.2325C13.5488 0.820679 13.8182 0.935568 14.0408 1.16535C14.2636 1.39535 14.375 1.67357 14.375 2.00001H19.2188C19.4932 2.00001 19.7233 2.0959 19.9088 2.28768C20.0946 2.47946 20.1875 2.71701 20.1875 3.00035C20.1875 3.2839 20.0946 3.52135 19.9088 3.71268C19.7233 3.90423 19.4932 4.00001 19.2188 4.00001H18.8958V20.923C18.8958 21.5859 18.6672 22.1533 18.21 22.6253C17.7527 23.0973 17.203 23.3333 16.5608 23.3333H4.43918ZM16.9583 4.00001H4.04167V20.923C4.04167 21.0428 4.07891 21.1411 4.1534 21.218C4.22788 21.2949 4.32314 21.3333 4.43918 21.3333H16.5608C16.6769 21.3333 16.7721 21.2949 16.8466 21.218C16.9211 21.1411 16.9583 21.0428 16.9583 20.923V4.00001ZM8.11591 18.6667C8.39039 18.6667 8.62041 18.5709 8.80598 18.3793C8.99133 18.1876 9.08401 17.95 9.08401 17.6667V7.66668C9.08401 7.38335 8.99112 7.14579 8.80533 6.95401C8.61976 6.76246 8.38963 6.66668 8.11494 6.66668C7.84046 6.66668 7.61043 6.76246 7.42486 6.95401C7.23951 7.14579 7.14683 7.38335 7.14683 7.66668V17.6667C7.14683 17.95 7.23962 18.1876 7.42519 18.3793C7.61097 18.5709 7.84121 18.6667 8.11591 18.6667ZM12.8851 18.6667C13.1595 18.6667 13.3896 18.5709 13.5751 18.3793C13.7605 18.1876 13.8532 17.95 13.8532 17.6667V7.66668C13.8532 7.38335 13.7604 7.14579 13.5748 6.95401C13.389 6.76246 13.1588 6.66668 12.8841 6.66668C12.6096 6.66668 12.3796 6.76246 12.194 6.95401C12.0087 7.14579 11.916 7.38335 11.916 7.66668V17.6667C11.916 17.95 12.0089 18.1876 12.1947 18.3793C12.3802 18.5709 12.6104 18.6667 12.8851 18.6667Z" fill="#AEAAAB"/>
</svg>
